<svg xmlns="http://www.w3.org/2000/svg" width="418" height="139" viewBox="0 0 418 139" version="1.1"><path d="M 39.424 21.895 C 32.149 25.199, 32 26.048, 32 64.035 C 32 86.603, 32.377 98.527, 33.175 101.191 C 34.939 107.078, 38.886 109.405, 47.881 109.859 L 55.270 110.232 57.334 115.116 L 59.397 120 66.698 120 C 70.766 120, 74 119.569, 74 119.027 C 74 118.491, 72.995 115.985, 71.767 113.457 L 69.534 108.860 71.728 107.180 C 76.646 103.414, 77.002 100.541, 76.978 64.782 C 76.958 34.555, 76.786 31.126, 75.105 27.424 C 72.335 21.325, 68.695 19.995, 54.849 20.022 C 45.973 20.039, 42.612 20.447, 39.424 21.895 M 97.002 59.706 C 97.003 104.303, 97.073 104.788, 104 108.248 C 109.318 110.905, 129.590 110.760, 134.947 108.027 C 141.907 104.476, 142.091 103.154, 141.775 59 L 141.500 20.500 134.500 20.500 L 127.500 20.500 127.237 56.913 C 127.058 81.756, 126.622 93.750, 125.865 94.663 C 124.455 96.362, 115.952 96.422, 113.696 94.750 C 112.176 93.623, 111.984 89.895, 111.755 57 L 111.500 20.500 104.250 20.206 L 97 19.912 97.002 59.706 M 280 65 L 280 110 287 110 L 294 110 294.045 96.750 C 294.086 84.819, 294.325 83.052, 296.448 79 C 298.804 74.502, 298.806 74.501, 299.927 77 C 300.544 78.375, 303.893 86.250, 307.370 94.500 L 313.690 109.500 321.942 109.792 C 326.481 109.953, 330.038 109.693, 329.847 109.215 C 329.656 108.736, 324.817 97.887, 319.093 85.105 L 308.686 61.865 318.351 42.182 C 323.666 31.357, 328.012 21.938, 328.008 21.250 C 328.002 20.361, 325.823 20, 320.467 20 L 312.933 20 304.308 38 C 299.565 47.900, 295.305 56, 294.842 56 C 294.379 56, 294 47.900, 294 38 L 294 20 287 20 L 280 20 280 65 M 346 65 L 346 110 368.500 110 L 391 110 391 103 L 391 96 376 96 L 361 96 361 84 L 361 72 372.500 72 L 384 72 384 65 L 384 58 372.500 58 L 361 58 361 46 L 361 34 376 34 L 391 34 391 27 L 391 20 368.500 20 L 346 20 346 65 M 201.881 28.191 C 181.084 63.740, 157.009 106.783, 157.241 108 C 157.491 109.310, 163.931 109.500, 208.014 109.500 C 257.743 109.500, 258.504 109.470, 258.771 107.500 C 258.928 106.343, 248.761 87.804, 234.641 63.500 C 216.411 32.123, 209.723 21.422, 208.199 21.191 C 206.593 20.947, 205.245 22.441, 201.881 28.191 M 197.132 50.051 C 191.430 59.977, 186.965 68.298, 187.209 68.542 C 187.453 68.786, 189.643 68.012, 192.076 66.822 C 195.107 65.340, 199.019 64.525, 204.500 64.235 C 211.810 63.848, 212.959 64.057, 217.816 66.656 C 220.749 68.225, 224.039 70.951, 225.155 72.736 L 227.179 75.973 223.428 74.405 C 213.325 70.184, 205.253 79.343, 210.906 88.613 C 211.970 90.358, 214.936 92.776, 217.652 94.113 C 221.801 96.156, 223.970 96.500, 232.700 96.500 C 238.310 96.500, 243.343 96.050, 243.885 95.500 C 244.535 94.840, 238.764 83.958, 226.916 63.500 C 217.042 46.450, 208.634 32.388, 208.231 32.252 C 207.829 32.116, 202.835 40.125, 197.132 50.051 M 48.750 35.080 C 47.147 36.014, 47 38.531, 47 65.015 C 47 92.579, 47.090 93.978, 48.934 94.965 C 51.578 96.380, 59.328 96.272, 60.800 94.800 C 61.678 93.922, 62 85.874, 62 64.835 C 62 37.420, 61.909 36.022, 60.066 35.035 C 57.610 33.721, 51.039 33.747, 48.750 35.080" stroke="none" fill="#04d3fa" fill-rule="evenodd"/></svg>